<?xml version="1.0" standalone="no"?>
<!DOCTYPE svg PUBLIC "-//W3C//DTD SVG 20010904//EN"
 "http://www.w3.org/TR/2001/REC-SVG-20010904/DTD/svg10.dtd">
<svg version="1.0" xmlns="http://www.w3.org/2000/svg"
 width="454.000000pt" height="454.000000pt" viewBox="0 0 454.000000 454.000000"
 preserveAspectRatio="xMidYMid meet">
<metadata>
Created by potrace 1.14, written by Peter Selinger 2001-2017
</metadata>
<g transform="translate(0.000000,454.000000) scale(0.100000,-0.100000)"
fill="#000000" stroke="none">
<path d="M3787 4344 c-2 -2 -32 -6 -68 -9 -35 -3 -81 -7 -101 -10 -146 -19
-135 -17 -293 -45 -66 -12 -133 -23 -150 -26 -75 -13 -424 -98 -555 -135 -251
-71 -557 -186 -796 -299 -154 -72 -195 -84 -309 -84 -129 -1 -199 21 -413 126
-203 101 -298 128 -432 124 -139 -4 -244 -33 -395 -109 -80 -39 -265 -157
-265 -168 0 -3 35 -13 77 -23 363 -85 638 -289 734 -545 47 -127 51 -223 16
-393 -15 -70 -29 -142 -32 -160 -3 -18 -15 -82 -25 -143 -11 -60 -22 -132 -26
-160 -20 -162 -80 -243 -354 -477 -192 -164 -270 -334 -268 -586 1 -59 4 -123
7 -142 l6 -35 46 65 c124 173 298 289 503 337 45 10 235 11 297 1 l67 -11 129
-126 c72 -70 160 -168 198 -221 38 -52 72 -97 75 -100 3 -3 21 -25 40 -50 30
-40 82 -101 190 -225 47 -54 305 -312 354 -355 56 -48 135 -100 153 -100 13 0
14 8 8 47 -14 89 -10 113 24 147 35 35 27 34 261 23 241 -11 447 -93 608 -240
23 -22 42 -37 42 -34 0 3 -9 33 -20 68 -31 102 -50 194 -57 277 -13 151 -7
278 22 412 3 14 7 34 9 45 9 43 48 161 57 169 5 6 9 17 9 26 0 20 76 169 128
251 23 35 39 65 37 67 -2 2 -39 -20 -82 -49 -154 -107 -280 -258 -369 -444
-86 -181 -139 -240 -260 -287 -99 -40 -170 -39 -446 3 -72 11 -172 54 -222 95
-45 38 -86 102 -86 135 0 33 14 53 91 130 126 124 318 183 507 154 66 -10 171
-44 225 -73 26 -14 49 -23 51 -21 8 8 -66 145 -106 197 -80 104 -178 163 -363
221 -127 39 -161 60 -185 114 -42 95 12 252 155 457 70 100 103 134 233 237
125 100 250 177 472 289 209 105 413 222 485 277 6 4 28 21 50 38 22 16 47 35
55 42 9 7 33 25 55 42 22 16 54 41 70 56 501 439 736 731 769 957 6 47 -19
123 -51 154 -33 31 -123 74 -173 82 -19 3 -46 8 -60 12 -26 6 -348 13 -353 8z"/>
</g>
</svg>
